<svg xmlns="http://www.w3.org/2000/svg" xmlns:xlink="http://www.w3.org/1999/xlink" version="1.1" width="1080" height="1080" viewBox="0 0 1080 1080" xml:space="preserve">
<desc>Created with Fabric.js 5.2.4</desc>
<defs>
</defs>
<g transform="matrix(1 0 0 1 540 540)" id="3c5d797a-404e-480d-b3a1-ae11be050687"  >
</g>
<g transform="matrix(1 0 0 1 540 540)" id="e1d5e63b-892a-47bf-8dfc-41c6ceaf16bb"  >
<rect style="stroke: none; stroke-width: 1; stroke-dasharray: none; stroke-linecap: butt; stroke-dashoffset: 0; stroke-linejoin: miter; stroke-miterlimit: 4; fill: rgb(255,255,255); fill-rule: nonzero; opacity: 1; visibility: hidden;" vector-effect="non-scaling-stroke"  x="-540" y="-540" rx="0" ry="0" width="1080" height="1080" />
</g>
<g transform="matrix(0.87 0 0 0.87 540 496.02)"  >
<g style="" vector-effect="non-scaling-stroke"   >
		<g transform="matrix(0.13 0 0 -0.13 -133.38 -118.87)"  >
<path style="stroke: none; stroke-width: 1; stroke-dasharray: none; stroke-linecap: butt; stroke-dashoffset: 0; stroke-linejoin: miter; stroke-miterlimit: 4; fill: rgb(82,182,219); fill-rule: nonzero; opacity: 1;" vector-effect="non-scaling-stroke"  transform=" translate(-4025, -5305.62)" d="M 3941 6870 L 1318 6865 L 1291 6834 C 1277 6818 1241 6789 1212 6771 C 1150 6732 1084 6659 1075 6622 C 1068 6587 1020 6287 965 5923 C 941 5763 914 5592 906 5543 C 897 5495 875 5347 855 5215 C 836 5083 813 4937 805 4890 C 783 4766 720 4339 720 4317 C 720 4287 765 4250 802 4250 C 827 4250 843 4260 879 4298 C 905 4325 990 4416 1069 4501 C 1149 4586 1248 4691 1289 4735 C 1331 4780 1426 4881 1500 4960 C 1631 5100 1716 5191 1886 5370 C 1931 5417 1983 5473 2003 5495 C 2027 5522 2042 5532 2049 5525 C 2054 5520 2087 5452 2121 5375 C 2205 5184 2325 4911 2365 4820 C 2469 4582 2556 4385 2590 4310 C 2611 4263 2652 4171 2680 4105 C 2812 3800 2835 3755 2864 3741 C 2889 3730 2897 3730 2924 3743 C 2958 3759 2966 3774 3115 4115 C 3206 4321 3277 4482 3355 4660 C 3395 4751 3469 4920 3520 5035 C 3571 5151 3631 5288 3655 5340 C 3679 5392 3710 5464 3725 5500 C 3740 5536 3755 5569 3759 5573 C 3763 5577 3800 5546 3841 5503 C 3920 5419 4358 4954 4474 4830 C 4512 4789 4580 4717 4625 4670 C 4669 4623 4741 4547 4785 4500 C 4998 4273 5022 4250 5051 4250 C 5066 4250 5091 4260 5105 4273 C 5136 4299 5139 4332 5121 4421 C 5115 4451 5096 4570 5080 4685 C 5063 4801 5041 4947 5030 5010 C 5019 5073 4990 5258 4965 5420 C 4785 6602 4785 6603 4761 6653 C 4751 6673 4746 6692 4750 6695 C 4754 6698 5227 6699 5801 6697 L 6845 6695 L 6848 6218 L 6850 5740 L 6935 5740 L 7020 5740 L 7020 6220 C 7020 6684 7021 6700 7039 6710 C 7050 6715 7120 6720 7194 6720 L 7330 6720 L 7330 6793 L 7330 6867 L 7073 6873 C 6932 6877 6760 6879 6691 6878 C 6622 6876 5384 6873 3941 6870 z M 4515 6664 C 4621 6608 4618 6614 4645 6440 C 4659 6355 4674 6264 4679 6238 C 4685 6204 4684 6190 4676 6190 C 4670 6191 4611 6240 4545 6301 C 4289 6537 4159 6651 4138 6659 C 4109 6669 4068 6656 4052 6630 C 4041 6612 3880 6252 3880 6245 C 3880 6243 3862 6203 3840 6155 C 3817 6108 3790 6046 3780 6019 C 3762 5975 3722 5890 3715 5882 C 3712 5879 3594 6000 3455 6150 C 3317 6298 3077 6553 3024 6608 C 2978 6655 2969 6660 2928 6660 C 2904 6660 2877 6654 2868 6648 C 2853 6635 2443 6201 2216 5957 C 2156 5892 2102 5841 2097 5843 C 2088 5846 2039 5951 1940 6180 C 1815 6471 1738 6637 1723 6648 C 1714 6654 1691 6660 1673 6660 C 1644 6660 1622 6644 1518 6548 C 1268 6315 1185 6241 1182 6249 C 1181 6253 1190 6330 1204 6419 C 1230 6597 1233 6603 1309 6648 C 1399 6701 1338 6699 2950 6697 L 4455 6695 L 4515 6664 z M 2991 6412 C 3021 6381 3108 6287 3185 6205 C 3262 6123 3357 6022 3395 5980 C 3539 5825 3625 5735 3633 5732 C 3649 5724 3645 5713 3465 5305 C 3385 5124 3304 4939 3265 4848 C 3246 4806 3220 4748 3207 4718 C 3193 4689 3168 4634 3152 4595 C 3135 4557 3092 4458 3055 4375 C 3019 4293 2970 4181 2947 4128 C 2924 4074 2901 4032 2896 4033 C 2886 4036 2844 4126 2685 4490 C 2626 4625 2526 4852 2463 4995 C 2400 5138 2325 5307 2298 5370 C 2270 5433 2230 5524 2208 5573 C 2186 5621 2170 5664 2172 5669 C 2175 5679 2453 5978 2726 6265 C 2804 6348 2878 6427 2890 6443 C 2902 6458 2917 6470 2924 6470 C 2931 6470 2961 6444 2991 6412 z M 4217 6383 C 4291 6318 4294 6315 4446 6174 C 4506 6119 4594 6039 4641 5997 C 4724 5923 4728 5918 4734 5868 C 4738 5839 4752 5748 4766 5666 C 4779 5583 4811 5385 4835 5226 C 4860 5066 4891 4859 4906 4767 C 4920 4674 4930 4596 4927 4594 C 4923 4590 4860 4653 4692 4832 C 4650 4877 4608 4921 4600 4930 C 4591 4938 4553 4979 4515 5020 C 4477 5061 4380 5165 4300 5250 C 4220 5335 4091 5473 4013 5555 C 3936 5638 3865 5711 3856 5719 C 3829 5742 3821 5722 4012 6150 C 4113 6376 4116 6384 4130 6418 C 4137 6436 4145 6449 4147 6446 C 4150 6444 4181 6415 4217 6383 z M 1703 6324 C 1729 6264 1771 6170 1795 6115 C 1819 6060 1868 5948 1904 5865 C 1940 5783 1970 5711 1970 5705 C 1969 5693 1989 5714 1470 5161 C 1390 5077 1238 4915 1132 4801 C 1026 4688 934 4593 928 4591 C 921 4589 919 4598 923 4616 C 928 4643 968 4899 1025 5270 C 1039 5361 1064 5518 1080 5620 C 1096 5722 1114 5842 1121 5888 L 1132 5971 L 1384 6205 C 1522 6334 1639 6439 1644 6437 C 1650 6435 1676 6385 1703 6324 z" stroke-linecap="round" />
</g>
		<g transform="matrix(0.13 0 0 -0.13 384.62 -252.12)"  >
<path style="stroke: none; stroke-width: 1; stroke-dasharray: none; stroke-linecap: butt; stroke-dashoffset: 0; stroke-linejoin: miter; stroke-miterlimit: 4; fill: rgb(82,182,219); fill-rule: nonzero; opacity: 1;" vector-effect="non-scaling-stroke"  transform=" translate(-7910, -6305)" d="M 7480 6305 L 7480 5740 L 7565 5740 L 7650 5740 L 7652 5993 L 7655 6245 L 7910 6245 L 8165 6245 L 8168 5993 L 8170 5740 L 8255 5740 L 8340 5740 L 8340 6305 L 8340 6870 L 8255 6870 L 8170 6870 L 8168 6638 L 8165 6405 L 7910 6405 L 7655 6405 L 7652 6638 L 7650 6870 L 7565 6870 L 7480 6870 L 7480 6305 z" stroke-linecap="round" />
</g>
		<g transform="matrix(0.13 0 0 -0.13 518.62 -252.12)"  >
<path style="stroke: none; stroke-width: 1; stroke-dasharray: none; stroke-linecap: butt; stroke-dashoffset: 0; stroke-linejoin: miter; stroke-miterlimit: 4; fill: rgb(82,182,219); fill-rule: nonzero; opacity: 1;" vector-effect="non-scaling-stroke"  transform=" translate(-8915, -6305)" d="M 8610 6305 L 8610 5740 L 8915 5740 L 9220 5740 L 9220 5820 L 9220 5900 L 9005 5900 L 8790 5900 L 8790 6075 L 8790 6250 L 8985 6250 L 9180 6250 L 9180 6325 L 9180 6400 L 8985 6400 L 8790 6400 L 8790 6560 L 8790 6720 L 9000 6720 L 9210 6720 L 9210 6795 L 9210 6870 L 8910 6870 L 8610 6870 L 8610 6305 z" stroke-linecap="round" />
</g>
		<g transform="matrix(0.13 0 0 -0.13 341.85 -32.05)"  >
<path style="stroke: none; stroke-width: 1; stroke-dasharray: none; stroke-linecap: butt; stroke-dashoffset: 0; stroke-linejoin: miter; stroke-miterlimit: 4; fill: rgb(82,182,219); fill-rule: nonzero; opacity: 1;" vector-effect="non-scaling-stroke"  transform=" translate(-7589.29, -4654.51)" d="M 7593 5309 C 7429 5282 7317 5193 7241 5030 C 7199 4939 7181 4864 7170 4724 C 7141 4371 7229 4121 7416 4029 C 7523 3976 7680 3977 7797 4032 C 7867 4064 7945 4147 7983 4227 C 8012 4291 8014 4302 8014 4415 C 8014 4518 8011 4544 7991 4595 C 7962 4666 7888 4745 7819 4777 C 7703 4831 7547 4829 7431 4773 C 7400 4758 7371 4744 7366 4742 C 7350 4734 7369 4876 7391 4935 C 7441 5068 7530 5131 7678 5137 C 7756 5141 7775 5138 7863 5107 L 7960 5073 L 7960 5167 L 7960 5261 L 7926 5275 C 7883 5293 7730 5320 7681 5319 C 7661 5318 7622 5314 7593 5309 z M 7708 4626 C 7751 4604 7798 4546 7811 4498 C 7817 4475 7820 4424 7818 4385 C 7811 4252 7745 4171 7635 4162 C 7555 4155 7514 4167 7469 4207 C 7399 4270 7369 4355 7367 4496 L 7365 4585 L 7417 4613 C 7502 4658 7633 4665 7708 4626 z" stroke-linecap="round" />
</g>
		<g transform="matrix(0.13 0 0 -0.13 89.27 -32.12)"  >
<path style="stroke: none; stroke-width: 1; stroke-dasharray: none; stroke-linecap: butt; stroke-dashoffset: 0; stroke-linejoin: miter; stroke-miterlimit: 4; fill: rgb(82,182,219); fill-rule: nonzero; opacity: 1;" vector-effect="non-scaling-stroke"  transform=" translate(-5694.87, -4655)" d="M 5600 5280 C 5600 5213 5517 5140 5425 5125 C 5320 5108 5330 5117 5330 5034 L 5330 4961 L 5468 4958 L 5605 4955 L 5605 4570 L 5605 4185 L 5472 4182 L 5339 4179 L 5342 4097 L 5345 4015 L 5703 4012 L 6060 4010 L 6060 4095 L 6060 4180 L 5930 4180 L 5800 4180 L 5800 4740 L 5800 5300 L 5700 5300 C 5606 5300 5600 5299 5600 5280 z" stroke-linecap="round" />
</g>
		<g transform="matrix(0.13 0 0 -0.13 210.61 -32.12)"  >
<path style="stroke: none; stroke-width: 1; stroke-dasharray: none; stroke-linecap: butt; stroke-dashoffset: 0; stroke-linejoin: miter; stroke-miterlimit: 4; fill: rgb(82,182,219); fill-rule: nonzero; opacity: 1;" vector-effect="non-scaling-stroke"  transform=" translate(-6604.99, -4655)" d="M 6510 5280 C 6510 5209 6425 5139 6325 5125 C 6236 5113 6240 5117 6240 5035 L 6240 4961 L 6375 4958 L 6511 4955 L 6511 4570 L 6511 4185 L 6380 4182 L 6250 4179 L 6250 4095 L 6250 4010 L 6610 4010 L 6970 4010 L 6970 4095 L 6970 4180 L 6840 4180 L 6710 4180 L 6710 4740 L 6710 5300 L 6610 5300 C 6516 5300 6510 5299 6510 5280 z" stroke-linecap="round" />
</g>
		<g transform="matrix(0.13 0 0 -0.13 457.28 -75.45)"  >
<path style="stroke: none; stroke-width: 1; stroke-dasharray: none; stroke-linecap: butt; stroke-dashoffset: 0; stroke-linejoin: miter; stroke-miterlimit: 4; fill: rgb(82,182,219); fill-rule: nonzero; opacity: 1;" vector-effect="non-scaling-stroke"  transform=" translate(-8455, -4980)" d="M 8230 5260 L 8230 5221 L 8318 5218 L 8405 5215 L 8408 4938 L 8410 4660 L 8455 4660 L 8500 4660 L 8502 4938 L 8505 5215 L 8593 5218 L 8680 5221 L 8680 5260 L 8680 5300 L 8455 5300 L 8230 5300 L 8230 5260 z" stroke-linecap="round" />
</g>
		<g transform="matrix(0.13 0 0 -0.13 531.28 -75.45)"  >
<path style="stroke: none; stroke-width: 1; stroke-dasharray: none; stroke-linecap: butt; stroke-dashoffset: 0; stroke-linejoin: miter; stroke-miterlimit: 4; fill: rgb(82,182,219); fill-rule: nonzero; opacity: 1;" vector-effect="non-scaling-stroke"  transform=" translate(-9010, -4980)" d="M 8770 4980 L 8770 4660 L 8815 4660 L 8860 4660 L 8860 4805 L 8860 4951 L 9008 4948 L 9155 4945 L 9158 4803 L 9161 4660 L 9205 4660 L 9250 4660 L 9250 4980 L 9250 5300 L 9205 5300 L 9161 5300 L 9158 5169 L 9155 5039 L 9010 5039 L 8865 5039 L 8862 5169 L 8859 5300 L 8815 5300 L 8770 5300 L 8770 4980 z" stroke-linecap="round" />
</g>
		<g transform="matrix(0.13 0 0 -0.13 -524.72 190.55)"  >
<path style="stroke: none; stroke-width: 1; stroke-dasharray: none; stroke-linecap: butt; stroke-dashoffset: 0; stroke-linejoin: miter; stroke-miterlimit: 4; fill: rgb(82,182,219); fill-rule: nonzero; opacity: 1;" vector-effect="non-scaling-stroke"  transform=" translate(-1090, -2985)" d="M 830 3475 L 830 3400 L 915 3400 L 1000 3400 L 1000 2990 L 1000 2580 L 915 2580 L 830 2580 L 830 2500 L 830 2420 L 1090 2420 L 1350 2420 L 1350 2500 L 1350 2579 L 1263 2582 L 1175 2585 L 1175 2990 L 1175 3395 L 1263 3398 L 1350 3401 L 1350 3475 L 1350 3550 L 1090 3550 L 830 3550 L 830 3475 z" stroke-linecap="round" />
</g>
		<g transform="matrix(0.13 0 0 -0.13 -400.05 190.55)"  >
<path style="stroke: none; stroke-width: 1; stroke-dasharray: none; stroke-linecap: butt; stroke-dashoffset: 0; stroke-linejoin: miter; stroke-miterlimit: 4; fill: rgb(82,182,219); fill-rule: nonzero; opacity: 1;" vector-effect="non-scaling-stroke"  transform=" translate(-2025, -2985)" d="M 1590 2985 L 1590 2420 L 1681 2420 L 1772 2420 L 1768 2850 C 1766 3087 1766 3280 1768 3280 C 1769 3280 1781 3256 1794 3227 C 1821 3166 1878 3070 2113 2693 L 2282 2420 L 2371 2420 L 2460 2420 L 2460 2985 L 2460 3550 L 2369 3550 L 2278 3550 L 2282 3125 C 2284 2891 2284 2700 2283 2700 C 2281 2700 2263 2735 2241 2778 C 2220 2820 2171 2905 2134 2966 C 2096 3027 2000 3184 1920 3313 L 1775 3549 L 1683 3550 L 1590 3550 L 1590 2985 z" stroke-linecap="round" />
</g>
		<g transform="matrix(0.13 0 0 -0.13 -275.38 190.55)"  >
<path style="stroke: none; stroke-width: 1; stroke-dasharray: none; stroke-linecap: butt; stroke-dashoffset: 0; stroke-linejoin: miter; stroke-miterlimit: 4; fill: rgb(82,182,219); fill-rule: nonzero; opacity: 1;" vector-effect="non-scaling-stroke"  transform=" translate(-2960, -2985)" d="M 2700 3475 L 2700 3400 L 2785 3400 L 2870 3400 L 2870 2990 L 2870 2580 L 2785 2580 L 2700 2580 L 2700 2500 L 2700 2420 L 2960 2420 L 3220 2420 L 3220 2500 L 3220 2580 L 3135 2580 L 3050 2580 L 3050 2990 L 3050 3400 L 3135 3400 L 3220 3400 L 3220 3475 L 3220 3550 L 2960 3550 L 2700 3550 L 2700 3475 z" stroke-linecap="round" />
</g>
		<g transform="matrix(0.13 0 0 -0.13 -171.72 190.55)"  >
<path style="stroke: none; stroke-width: 1; stroke-dasharray: none; stroke-linecap: butt; stroke-dashoffset: 0; stroke-linejoin: miter; stroke-miterlimit: 4; fill: rgb(82,182,219); fill-rule: nonzero; opacity: 1;" vector-effect="non-scaling-stroke"  transform=" translate(-3737.45, -2985)" d="M 3347 3543 C 3345 3538 3344 3506 3346 3470 L 3349 3405 L 3499 3402 L 3650 3399 L 3650 2910 L 3650 2420 L 3735 2420 L 3820 2420 L 3822 2908 L 3825 3395 L 3978 3398 L 4130 3401 L 4130 3475 L 4130 3550 L 3741 3550 C 3526 3550 3349 3547 3347 3543 z" stroke-linecap="round" />
</g>
		<g transform="matrix(0.13 0 0 -0.13 -68.12 190.55)"  >
<path style="stroke: none; stroke-width: 1; stroke-dasharray: none; stroke-linecap: butt; stroke-dashoffset: 0; stroke-linejoin: miter; stroke-miterlimit: 4; fill: rgb(82,182,219); fill-rule: nonzero; opacity: 1;" vector-effect="non-scaling-stroke"  transform=" translate(-4514.5, -2985)" d="M 4250 3475 L 4250 3400 L 4340 3400 L 4430 3400 L 4430 2990 L 4430 2581 L 4343 2578 L 4255 2575 L 4252 2498 L 4249 2420 L 4515 2420 L 4780 2420 L 4780 2500 L 4780 2580 L 4690 2580 L 4600 2580 L 4602 2988 L 4605 3395 L 4693 3398 L 4780 3401 L 4780 3475 L 4780 3550 L 4515 3550 L 4250 3550 L 4250 3475 z" stroke-linecap="round" />
</g>
		<g transform="matrix(0.13 0 0 -0.13 48.75 190.55)"  >
<path style="stroke: none; stroke-width: 1; stroke-dasharray: none; stroke-linecap: butt; stroke-dashoffset: 0; stroke-linejoin: miter; stroke-miterlimit: 4; fill: rgb(82,182,219); fill-rule: nonzero; opacity: 1;" vector-effect="non-scaling-stroke"  transform=" translate(-5391.03, -2985)" d="M 5285 3538 C 5283 3531 5204 3283 5110 2987 C 5016 2692 4937 2443 4933 2434 C 4928 2421 4941 2420 5020 2422 C 5110 2425 5114 2426 5121 2450 C 5125 2464 5143 2521 5160 2578 L 5191 2680 L 5394 2680 L 5597 2680 L 5635 2550 L 5673 2420 L 5762 2420 C 5810 2420 5850 2424 5850 2429 C 5850 2434 5790 2629 5716 2861 C 5642 3094 5563 3345 5541 3418 L 5499 3550 L 5394 3550 C 5319 3550 5288 3546 5285 3538 z M 5473 3105 L 5547 2845 L 5397 2842 C 5315 2841 5246 2841 5244 2843 C 5242 2845 5271 2954 5309 3086 C 5347 3217 5381 3339 5385 3355 C 5389 3372 5394 3381 5396 3375 C 5398 3370 5433 3248 5473 3105 z" stroke-linecap="round" />
</g>
		<g transform="matrix(0.13 0 0 -0.13 171.28 190.55)"  >
<path style="stroke: none; stroke-width: 1; stroke-dasharray: none; stroke-linecap: butt; stroke-dashoffset: 0; stroke-linejoin: miter; stroke-miterlimit: 4; fill: rgb(82,182,219); fill-rule: nonzero; opacity: 1;" vector-effect="non-scaling-stroke"  transform=" translate(-6310, -2985)" d="M 5920 3475 L 5920 3401 L 6073 3398 L 6225 3395 L 6228 2908 L 6230 2420 L 6315 2420 L 6400 2420 L 6400 2910 L 6400 3400 L 6550 3400 L 6700 3400 L 6700 3475 L 6700 3550 L 6310 3550 L 5920 3550 L 5920 3475 z" stroke-linecap="round" />
</g>
		<g transform="matrix(0.13 0 0 -0.13 275.28 190.55)"  >
<path style="stroke: none; stroke-width: 1; stroke-dasharray: none; stroke-linecap: butt; stroke-dashoffset: 0; stroke-linejoin: miter; stroke-miterlimit: 4; fill: rgb(82,182,219); fill-rule: nonzero; opacity: 1;" vector-effect="non-scaling-stroke"  transform=" translate(-7090, -2985)" d="M 6830 3475 L 6830 3400 L 6915 3400 L 7000 3400 L 7000 2990 L 7000 2580 L 6915 2580 L 6830 2580 L 6830 2500 L 6830 2420 L 7090 2420 L 7350 2420 L 7350 2500 L 7350 2580 L 7265 2580 L 7180 2580 L 7180 2990 L 7180 3400 L 7265 3400 L 7350 3400 L 7350 3475 L 7350 3550 L 7090 3550 L 6830 3550 L 6830 3475 z" stroke-linecap="round" />
</g>
		<g transform="matrix(0.13 0 0 -0.13 392.55 190.55)"  >
<path style="stroke: none; stroke-width: 1; stroke-dasharray: none; stroke-linecap: butt; stroke-dashoffset: 0; stroke-linejoin: miter; stroke-miterlimit: 4; fill: rgb(82,182,219); fill-rule: nonzero; opacity: 1;" vector-effect="non-scaling-stroke"  transform=" translate(-7969.5, -2985)" d="M 7510 3544 C 7510 3541 7568 3355 7639 3132 C 7710 2908 7790 2656 7816 2573 L 7864 2420 L 7966 2420 C 8023 2420 8071 2424 8074 2428 C 8077 2432 8137 2623 8209 2851 C 8280 3078 8355 3317 8375 3380 C 8395 3443 8416 3507 8420 3523 L 8429 3550 L 8337 3550 L 8245 3550 L 8111 3084 C 8037 2828 7974 2617 7970 2615 C 7967 2613 7911 2794 7845 3018 C 7780 3242 7718 3453 7708 3488 L 7689 3550 L 7600 3550 C 7550 3550 7510 3547 7510 3544 z" stroke-linecap="round" />
</g>
		<g transform="matrix(0.13 0 0 -0.13 518.62 190.55)"  >
<path style="stroke: none; stroke-width: 1; stroke-dasharray: none; stroke-linecap: butt; stroke-dashoffset: 0; stroke-linejoin: miter; stroke-miterlimit: 4; fill: rgb(82,182,219); fill-rule: nonzero; opacity: 1;" vector-effect="non-scaling-stroke"  transform=" translate(-8915, -2985)" d="M 8610 2985 L 8610 2420 L 8915 2420 L 9220 2420 L 9220 2500 L 9220 2580 L 9005 2580 L 8790 2580 L 8790 2755 L 8790 2930 L 8985 2930 L 9180 2930 L 9180 3005 L 9180 3080 L 8985 3080 L 8790 3080 L 8790 3240 L 8790 3400 L 9000 3400 L 9210 3400 L 9210 3475 L 9210 3550 L 8910 3550 L 8610 3550 L 8610 2985 z" stroke-linecap="round" />
</g>
		<g transform="matrix(0.13 0 0 -0.13 10.13 317.22)"  >
<path style="stroke: none; stroke-width: 1; stroke-dasharray: none; stroke-linecap: butt; stroke-dashoffset: 0; stroke-linejoin: miter; stroke-miterlimit: 4; fill: rgb(82,182,219); fill-rule: nonzero; opacity: 1;" vector-effect="non-scaling-stroke"  transform=" translate(-5101.35, -2035)" d="M 904 2102 C 859 2066 862 1995 909 1967 C 936 1951 1207 1950 5108 1950 L 9277 1950 L 9304 1975 C 9339 2007 9340 2061 9305 2095 L 9281 2120 L 5103 2120 C 1160 2120 924 2119 904 2102 z" stroke-linecap="round" />
</g>
</g>
</g>
<g transform="matrix(NaN NaN NaN NaN 0 0)"  >
<g style=""   >
</g>
</g>
</svg>